<svg width="64" height="64" viewBox="0 0 64 64" fill="none" xmlns="http://www.w3.org/2000/svg">
<path fill-rule="evenodd" clip-rule="evenodd" d="M16.9762 21.7874C16.9762 20.6021 17.9371 19.6412 19.1224 19.6412H42.0149C43.2002 19.6412 44.1611 20.6021 44.1611 21.7874C44.1611 22.9727 43.2002 23.9336 42.0149 23.9336H19.1224C17.9371 23.9336 16.9762 22.9727 16.9762 21.7874Z" fill="black"/>
<path fill-rule="evenodd" clip-rule="evenodd" d="M16.9762 33.2343C16.9762 32.049 17.9371 31.0881 19.1224 31.0881H29.1379C30.3232 31.0881 31.2841 32.049 31.2841 33.2343C31.2841 34.4196 30.3232 35.3805 29.1379 35.3805H19.1224C17.9371 35.3805 16.9762 34.4196 16.9762 33.2343Z" fill="black"/>
<path fill-rule="evenodd" clip-rule="evenodd" d="M13.3989 9.62681C9.84285 9.62706 6.9603 12.5096 6.9603 16.0654V38.9579C6.9603 42.5137 9.843 45.3964 13.3989 45.3964H19.1219C20.3072 45.3964 21.2681 46.3573 21.2681 47.5426V52.3368L25.1144 50.029C26.1308 49.4191 27.4491 49.7487 28.0589 50.7651C28.6687 51.7815 28.3391 53.0998 27.3228 53.7096L20.2261 57.9676C19.5631 58.3654 18.7373 58.3758 18.0645 57.9949C17.3917 57.6139 16.9757 56.9005 16.9757 56.1273V49.6887H13.3989C7.4724 49.6887 2.66797 44.8843 2.66797 38.9579V16.0654C2.66797 10.1388 7.47249 5.33479 13.3987 5.33447H47.7377C53.6637 5.33479 58.4686 10.1388 58.4686 16.0654V27.5117C58.4686 28.697 57.5077 29.6579 56.3224 29.6579C55.1371 29.6579 54.1763 28.697 54.1763 27.5117V16.0654C54.1763 12.5097 51.2935 9.62706 47.7377 9.62681M47.7377 9.62681H13.3989H47.7377Z" fill="black"/>
<path fill-rule="evenodd" clip-rule="evenodd" d="M47.7476 38.5155C51.0773 36.0368 55.7931 36.2899 58.8391 39.2686C62.1698 42.5227 62.1619 47.8824 58.8232 51.1269L49.2404 60.5209C48.4052 61.3397 47.0683 61.339 46.234 60.5193L36.6373 51.0915L36.635 51.0893C33.3054 47.8327 33.3164 42.4709 36.6603 39.2282M47.7476 38.5155C44.4284 36.0287 39.7163 36.2644 36.6603 39.2282L47.7476 38.5155ZM45.6023 42.3176C43.9474 40.7037 41.3083 40.6998 39.6487 42.3094C38.0383 43.871 38.033 46.4537 39.6375 48.0218L39.6414 48.0257L47.7396 55.9814L55.8297 48.0507C57.4396 46.4885 57.4438 43.9058 55.839 42.3384C54.1856 40.7214 51.5445 40.7142 49.8835 42.3221L49.2474 42.9467C48.4111 43.768 47.0705 43.7664 46.2362 42.9431L45.6023 42.3176Z" fill="black"/>
</svg>
