<svg viewBox="0 0 165 32" fill="none" xmlns="http://www.w3.org/2000/svg">
<path d="M40.9 2.79999H37.06V26.99H40.9V2.79999Z" fill="black"/>
<path d="M16.77 9.65002C15.94 8.75 15.13 8.16 14.35 7.86002C13.57 7.56 12.79 7.41 12 7.41C10.83 7.41 9.77002 7.62 8.82001 8.03C7.87 8.44 7.04999 9.02002 6.37 9.76001C5.69 10.5 5.15997 11.35 4.78998 12.34C4.41998 13.32 4.22998 14.38 4.22998 15.51C4.22998 16.73 4.41998 17.85 4.78998 18.87C5.15997 19.89 5.69 20.78 6.37 21.53C7.04999 22.28 7.87 22.86 8.82001 23.29C9.77002 23.72 10.83 23.93 12 23.93C12.92 23.93 13.81 23.71 14.67 23.27C15.53 22.83 16.34 22.13 17.09 21.17L20.42 23.54C19.4 24.95 18.15 25.97 16.68 26.61C15.21 27.25 13.64 27.57 11.98 27.57C10.23 27.57 8.63 27.29 7.15997 26.72C5.70001 26.16 4.44 25.35 3.38 24.32C2.32001 23.29 1.5 22.04 0.900024 20.59C0.299988 19.14 0 17.53 0 15.76C0 13.99 0.299988 12.3 0.900024 10.82C1.5 9.34 2.32001 8.07001 3.38 7.03C4.44 5.99002 5.69 5.18002 7.15997 4.61002C8.62 4.04001 10.23 3.76001 11.98 3.76001C13.52 3.76001 14.94 4.03 16.25 4.58002C17.56 5.12 18.78 6.05002 19.91 7.35001L16.77 9.65002Z" fill="black"/>
<path d="M35.2 27H31.55V24.54H31.49C31.13 25.31 30.57 25.98 29.83 26.54C29.08 27.1 28.07 27.39 26.79 27.39C25.77 27.39 24.9 27.22 24.18 26.89C23.47 26.56 22.88 26.11 22.44 25.55C21.99 24.99 21.67 24.34 21.48 23.61C21.29 22.88 21.19 22.13 21.19 21.34V11.64H25.03V19.42C25.03 19.85 25.05 20.32 25.09 20.84C25.13 21.36 25.24 21.85 25.43 22.31C25.61 22.77 25.89 23.15 26.26 23.46C26.63 23.77 27.16 23.92 27.84 23.92C28.48 23.92 29.02 23.81 29.46 23.6C29.9 23.39 30.26 23.1 30.55 22.74C30.84 22.38 31.05 21.96 31.17 21.49C31.29 21.02 31.36 20.53 31.36 20.02V11.64H35.2V27Z" fill="black"/>
<path d="M42.27 14.9V14.89H45.43V21.93C45.43 22.83 45.5 23.62 45.64 24.3C45.78 24.98 46.04 25.55 46.41 26.01C46.79 26.47 47.3 26.81 47.95 27.03C48.6 27.26 49.44 27.37 50.46 27.37C50.91 27.37 51.42 27.33 52.01 27.26C52.6 27.18 53.09 27.05 53.5 26.86V23.63C53.27 23.8 52.95 23.93 52.54 24C52.13 24.07 51.76 24.11 51.42 24.11C50.57 24.11 50 23.89 49.71 23.44C49.42 23 49.28 22.39 49.28 21.62V14.9H53.5V11.64H49.28V7.19H45.44V11.64H42.27V14.89H42.26L42.27 14.9Z" fill="black"/>
<path d="M55.15 4.80002C54.6899 5.26001 54.46 5.80002 54.46 6.42001C54.46 7.04001 54.6899 7.58002 55.15 8.04001C55.6 8.5 56.1799 8.73001 56.89 8.73001C57.6 8.73001 58.1899 8.51001 58.67 8.07001C59.15 7.63 59.39 7.08002 59.39 6.42001C59.39 5.76001 59.15 5.21002 58.67 4.77002C58.1899 4.33002 57.59 4.11002 56.89 4.11002C56.1899 4.11002 55.61 4.34003 55.15 4.80002Z" fill="black"/>
<path d="M58.85 11.64H55.0099V27H58.85V11.64Z" fill="black"/>
<path d="M59.9 11.64H64.09L68.19 22.39H68.25L72.38 11.64H76.32L70.27 27H66.17L59.9 11.64Z" fill="black"/>
<path fill-rule="evenodd" clip-rule="evenodd" d="M85.85 24.88H85.95L85.96 24.86V26.97H89.42V18.14C89.42 18.0148 89.4188 17.8823 89.4163 17.7426C89.4118 17.4806 89.403 17.1931 89.39 16.88C89.3699 16.4 89.3 15.9 89.1799 15.39C89.0599 14.88 88.8699 14.37 88.6 13.87C88.33 13.37 87.95 12.92 87.46 12.54C86.97 12.16 86.35 11.85 85.6 11.6C84.85 11.35 83.9399 11.23 82.85 11.23C81.6299 11.23 80.45 11.43 79.3099 11.81C78.17 12.2 77.17 12.83 76.3199 13.7L78.34 15.72C78.85 15.23 79.46 14.84 80.16 14.55C80.86 14.26 81.6199 14.12 82.4299 14.12C83.46 14.12 84.3 14.36 84.96 14.84C85.6199 15.32 85.95 16.04 85.95 17V17.42H84.99C84.35 17.42 83.67 17.44 82.9399 17.47C82.21 17.5 81.49 17.57 80.78 17.69C80.0699 17.81 79.3799 17.99 78.72 18.22C78.0599 18.45 77.48 18.77 76.98 19.16C76.48 19.55 76.08 20.04 75.78 20.63C75.48 21.22 75.33 21.93 75.33 22.76C75.33 23.53 75.4899 24.2 75.8099 24.78C76.1299 25.36 76.55 25.84 77.0699 26.22C77.59 26.6 78.1899 26.89 78.86 27.08C79.53 27.27 80.22 27.37 80.92 27.37C81.95 27.37 82.89 27.17 83.74 26.78C84.59 26.39 85.29 25.76 85.85 24.88ZM85.72 20.12H84.9299C84.4 20.12 83.8 20.14 83.14 20.18C82.48 20.22 81.85 20.32 81.27 20.48C80.6799 20.64 80.1899 20.88 79.78 21.18C79.3699 21.49 79.17 21.92 79.17 22.48C79.17 22.84 79.2499 23.15 79.41 23.39C79.5699 23.64 79.78 23.84 80.03 24.01C80.29 24.18 80.5699 24.3 80.89 24.38C81.21 24.45 81.53 24.49 81.85 24.49C83.17 24.49 84.15 24.18 84.78 23.55C85.41 22.92 85.72 22.06 85.72 20.97V20.12Z" fill="black"/>
<path d="M90.14 14.9V14.89H93.3V21.93C93.3 22.83 93.37 23.62 93.51 24.3C93.65 24.98 93.91 25.55 94.28 26.01C94.66 26.47 95.17 26.81 95.82 27.03C96.47 27.26 97.31 27.37 98.33 27.37C98.78 27.37 99.29 27.33 99.88 27.26C100.47 27.18 100.96 27.05 101.37 26.86V23.63C101.14 23.8 100.82 23.93 100.41 24C100 24.07 99.63 24.11 99.29 24.11C98.44 24.11 97.87 23.89 97.58 23.44C97.29 23 97.15 22.39 97.15 21.62V14.9H101.37V11.64H97.15V7.19H93.31V11.64H90.14V14.89H90.13L90.14 14.9Z" fill="black"/>
<path fill-rule="evenodd" clip-rule="evenodd" d="M105.212 20.68C105.345 21.8204 105.794 22.7137 106.55 23.35C107.32 23.99 108.25 24.31 109.33 24.31C110.29 24.31 111.1 24.11 111.75 23.72C112.4 23.33 112.97 22.83 113.46 22.23L116.21 24.31C115.31 25.42 114.31 26.21 113.2 26.68C112.09 27.15 110.93 27.38 109.71 27.38C108.56 27.38 107.47 27.19 106.45 26.8C105.43 26.42 104.54 25.87 103.79 25.17C103.04 24.47 102.45 23.62 102.01 22.63C101.57 21.64 101.35 20.53 101.35 19.32C101.35 18.11 101.57 17 102.01 16.01C102.45 15.02 103.04 14.17 103.79 13.47C104.54 12.77 105.42 12.22 106.45 11.84C107.48 11.46 108.56 11.26 109.71 11.26C110.78 11.26 111.75 11.45 112.64 11.82C113.53 12.19 114.28 12.73 114.91 13.44C115.54 14.14 116.03 15.01 116.38 16.05C116.73 17.09 116.91 18.27 116.91 19.62V20.68H105.212ZM112.03 15.11C112.72 15.76 113.07 16.65 113.09 17.78H105.21C105.36 16.67 105.77 15.78 106.44 15.12C107.12 14.46 108.03 14.13 109.18 14.13C110.4 14.13 111.35 14.46 112.03 15.11Z" fill="black"/>
<path d="M122.65 0V32H121.11V0H122.65Z" fill="black"/>
<path d="M143.12 27.1C144.54 26.8 145.91 26.27 147.23 25.52L147.22 25.5V14.75H139.67V16.67H145.11V24.29C144.24 24.81 143.27 25.16 142.2 25.35C141.14 25.54 140 25.64 138.78 25.64C137.31 25.64 135.98 25.38 134.8 24.87C133.62 24.36 132.61 23.66 131.78 22.76C130.95 21.86 130.31 20.81 129.86 19.59C129.41 18.37 129.19 17.06 129.19 15.65C129.19 14.24 129.41 12.93 129.86 11.71C130.31 10.49 130.95 9.42999 131.78 8.54001C132.61 7.64999 133.62 6.94 134.8 6.42999C135.98 5.92001 137.31 5.66 138.78 5.66C139.4 5.66 140.03 5.73001 140.67 5.87C141.31 6.01001 141.93 6.20001 142.51 6.45001C143.09 6.70001 143.64 7 144.14 7.35001C144.64 7.70999 145.06 8.09 145.4 8.48999L146.94 6.89001C144.87 4.79999 142.15 3.75 138.78 3.75C137.05 3.75 135.47 4.04999 134.03 4.64999C132.59 5.25 131.35 6.07001 130.33 7.13C129.31 8.19 128.51 9.44 127.93 10.89C127.36 12.34 127.07 13.94 127.07 15.66C127.07 17.38 127.35 18.98 127.93 20.44C128.51 21.91 129.3 23.17 130.33 24.22C131.36 25.27 132.59 26.09 134.03 26.68C135.47 27.27 137.05 27.56 138.78 27.56C140.26 27.56 141.7 27.41 143.12 27.1Z" fill="black"/>
<path fill-rule="evenodd" clip-rule="evenodd" d="M149.44 16.48C149.05 17.43 148.86 18.47 148.86 19.6C148.86 20.73 149.06 21.77 149.44 22.72C149.82 23.67 150.36 24.49 151.04 25.18C151.72 25.88 152.54 26.42 153.5 26.8C154.46 27.19 155.51 27.38 156.64 27.38C157.77 27.38 158.81 27.18 159.76 26.8C160.71 26.41 161.53 25.87 162.22 25.18C162.92 24.49 163.46 23.67 163.84 22.72C164.23 21.77 164.42 20.73 164.42 19.6C164.42 18.47 164.22 17.43 163.84 16.48C163.45 15.54 162.91 14.71 162.22 14.02C161.53 13.32 160.71 12.78 159.76 12.4C158.81 12.01 157.78 11.82 156.64 11.82C155.5 11.82 154.46 12.02 153.5 12.4C152.54 12.79 151.72 13.33 151.04 14.02C150.36 14.71 149.82 15.53 149.44 16.48ZM151.18 21.95C150.91 21.22 150.78 20.43 150.78 19.6C150.78 18.77 150.91 17.99 151.18 17.25C151.45 16.51 151.84 15.87 152.35 15.33C152.87 14.78 153.49 14.35 154.21 14.03C154.93 13.71 155.75 13.55 156.64 13.55C157.53 13.55 158.34 13.71 159.07 14.03C159.8 14.35 160.42 14.79 160.93 15.33C161.44 15.87 161.83 16.51 162.1 17.25C162.37 17.98 162.5 18.77 162.5 19.6C162.5 20.43 162.37 21.21 162.1 21.95C161.83 22.69 161.45 23.32 160.93 23.87C160.41 24.42 159.8 24.85 159.07 25.17C158.35 25.49 157.53 25.65 156.64 25.65C155.75 25.65 154.94 25.49 154.21 25.17C153.48 24.85 152.86 24.41 152.35 23.87C151.84 23.33 151.45 22.69 151.18 21.95Z" fill="black"/>
</svg>
