<svg viewBox="0 0 24 24" xmlns="http://www.w3.org/2000/svg">
<path fill-rule="evenodd" clip-rule="evenodd" d="M7.49995 6.5C7.49995 4.01472 9.51467 2 12 2C14.4852 2 16.5 4.01472 16.5 6.5C16.5 8.98528 14.4852 11 12 11C9.51467 11 7.49995 8.98528 7.49995 6.5ZM12 4C10.6192 4 9.49995 5.11929 9.49995 6.5C9.49995 7.88072 10.6192 9 12 9C13.3807 9 14.5 7.88072 14.5 6.5C14.5 5.11929 13.3807 4 12 4Z" />
<path fill-rule="evenodd" clip-rule="evenodd" d="M9.35525 12.95H14.6446C15.7268 12.95 16.6027 12.95 17.3126 13.008C18.0446 13.0678 18.6921 13.1944 19.2926 13.5004C20.2428 13.9845 21.0154 14.7571 21.4996 15.7074C21.8055 16.3079 21.9322 16.9554 21.992 17.6873C22.05 18.3972 22.05 19.2731 22.05 20.3552V21C22.05 21.5799 21.5799 22.05 21 22.05H2.99995C2.42005 22.05 1.94995 21.5799 1.94995 21L1.94995 20.3553C1.94994 19.2731 1.94993 18.3972 2.00794 17.6873C2.06774 16.9554 2.19439 16.3079 2.50037 15.7074C2.98452 14.7572 3.75707 13.9846 4.70731 13.5004C5.30782 13.1944 5.95534 13.0678 6.68727 13.008C7.3972 12.95 8.27309 12.95 9.35525 12.95ZM5.66067 15.3715C5.1056 15.6543 4.65431 16.1057 4.37149 16.6607C4.24149 16.9159 4.15015 17.2563 4.10096 17.8583C4.05767 18.3882 4.05111 19.0486 4.05012 19.95H19.9498C19.9488 19.0486 19.9422 18.3882 19.8989 17.8583C19.8498 17.2563 19.7584 16.9159 19.6284 16.6607C19.3456 16.1057 18.8943 15.6544 18.3392 15.3715M5.66067 15.3715C5.91581 15.2415 6.25621 15.1502 6.85827 15.101C7.4726 15.0508 8.26253 15.05 9.39995 15.05H14.6C15.7374 15.05 16.5273 15.0508 17.1416 15.101C17.7437 15.1502 18.0841 15.2415 18.3392 15.3715" />
</svg>
