<svg viewBox="0 0 24 24" xmlns="http://www.w3.org/2000/svg">
<path fill-rule="evenodd" clip-rule="evenodd" d="M6.36582 8.17011C6.36582 7.7256 6.72616 7.36526 7.17066 7.36526H15.7557C16.2002 7.36526 16.5605 7.7256 16.5605 8.17011C16.5605 8.61461 16.2002 8.97495 15.7557 8.97495H7.17066C6.72616 8.97495 6.36582 8.61461 6.36582 8.17011Z" />
<path fill-rule="evenodd" clip-rule="evenodd" d="M6.36582 12.4629C6.36582 12.0184 6.72616 11.658 7.17066 11.658H10.9266C11.3712 11.658 11.7315 12.0184 11.7315 12.4629C11.7315 12.9074 11.3712 13.2677 10.9266 13.2677H7.17066C6.72616 13.2677 6.36582 12.9074 6.36582 12.4629Z" />
<path fill-rule="evenodd" clip-rule="evenodd" d="M5.02425 3.60969C3.69069 3.60979 2.60969 4.6908 2.60969 6.02425V14.6093C2.60969 15.9428 3.69075 17.0238 5.02425 17.0238H7.17049C7.61499 17.0238 7.97533 17.3842 7.97533 17.8287V19.6266L9.41775 18.7611C9.79891 18.5324 10.2933 18.656 10.522 19.0372C10.7507 19.4184 10.6271 19.9127 10.2459 20.1414L7.58458 21.7382C7.33593 21.8874 7.02626 21.8913 6.77394 21.7485C6.52161 21.6056 6.36564 21.3381 6.36564 21.0481V18.6335H5.02425C2.80174 18.6335 1 16.8318 1 14.6093V6.02425C1 3.8017 2.80177 2.00012 5.02421 2H17.9019C20.1242 2.00012 21.9261 3.80168 21.9261 6.02425V10.3168C21.9261 10.7613 21.5658 11.1217 21.1213 11.1217C20.6768 11.1217 20.3164 10.7613 20.3164 10.3168V6.02425C20.3164 4.69082 19.2353 3.60979 17.9019 3.60969M17.9019 3.60969H5.02425H17.9019Z" />
<path fill-rule="evenodd" clip-rule="evenodd" d="M17.9056 14.4434C19.1542 13.5138 20.9228 13.6088 22.0651 14.7258C23.3141 15.9462 23.3112 17.9561 22.0591 19.1729L18.4654 22.6958C18.1522 23.0028 17.6508 23.0026 17.3379 22.6952L13.739 19.1596L13.7382 19.1588C12.4895 17.9375 12.4936 15.9267 13.7477 14.7107M17.9056 14.4434C16.6608 13.5108 14.8937 13.5992 13.7477 14.7107L17.9056 14.4434ZM17.101 15.8692C16.4804 15.264 15.4907 15.2625 14.8684 15.8662C14.2644 16.4518 14.2625 17.4204 14.8641 18.0084L14.8656 18.0099L17.9026 20.9934L20.9365 18.0192C21.5402 17.4334 21.5418 16.4649 20.94 15.877C20.3199 15.2707 19.3295 15.2679 18.7065 15.8709L18.468 16.1052C18.1544 16.4132 17.6516 16.4126 17.3388 16.1038L17.101 15.8692Z" />
</svg>
