<svg viewBox="0 0 24 24" xmlns="http://www.w3.org/2000/svg">
<path fill-rule="evenodd" clip-rule="evenodd" d="M11.82 3C10.7637 3 9.82299 3.49214 9.21327 4.26364C8.96637 4.57605 8.55765 4.71221 8.17273 4.61028C7.90172 4.53852 7.61614 4.5 7.32 4.5C5.48642 4.5 4 5.98643 4 7.82C4 9.43701 5.15701 10.7859 6.6887 11.0803C7.15961 11.1708 7.5 11.5828 7.5 12.0623V20H16.5V12.0623C16.5 11.5828 16.8404 11.1708 17.3113 11.0803C18.843 10.7859 20 9.43701 20 7.82C20 5.98643 18.5136 4.5 16.68 4.5C16.3015 4.5 15.9397 4.56295 15.6035 4.67814C15.1932 4.81868 14.7392 4.67878 14.4791 4.33174C13.8719 3.52129 12.907 3 11.82 3ZM8.06462 2.55182C9.02592 1.59397 10.3538 1 11.82 1C13.3129 1 14.6622 1.61569 15.6273 2.60433C15.9682 2.53585 16.3203 2.5 16.68 2.5C19.6181 2.5 22 4.88187 22 7.82C22 10.1195 20.5419 12.0768 18.5 12.8203V20C18.5 21.1046 17.6046 22 16.5 22H7.5C6.39542 22 5.5 21.1046 5.5 20V12.8203C3.45815 12.0768 2 10.1195 2 7.82C2 4.88187 4.38184 2.5 7.32 2.5C7.57232 2.5 7.82095 2.51764 8.06462 2.55182Z" />
<path fill-rule="evenodd" clip-rule="evenodd" d="M5.5 15.5C5.5 14.9477 5.94772 14.5 6.5 14.5H17.5C18.0523 14.5 18.5 14.9477 18.5 15.5C18.5 16.0523 18.0523 16.5 17.5 16.5H6.5C5.94772 16.5 5.5 16.0523 5.5 15.5Z" />
<path fill-rule="evenodd" clip-rule="evenodd" d="M10 11.5C10.5523 11.5 11 11.9477 11 12.5V15.5C11 16.0523 10.5523 16.5 10 16.5C9.44772 16.5 9 16.0523 9 15.5V12.5C9 11.9477 9.44772 11.5 10 11.5Z" />
</svg>
