<svg width="23" height="24" viewBox="0 0 23 24" xmlns="http://www.w3.org/2000/svg">
<path d="M15.7071 9.70711L15.7864 9.62018L15.8532 9.53112C16.46 8.63152 15.2605 7.484 14.3798 8.2136L14.2929 8.29289L12 10.585L9.70711 8.29289L9.6129 8.2097C9.22061 7.90468 8.65338 7.93241 8.29289 8.29289C7.90237 8.68342 7.90237 9.31658 8.29289 9.70711L10.585 12L8.29289 14.2929L8.2097 14.3871C7.90468 14.7794 7.93241 15.3466 8.29289 15.7071C8.68342 16.0976 9.31658 16.0976 9.70711 15.7071L12 13.415L14.2929 15.7071L14.3871 15.7903C14.7794 16.0953 15.3466 16.0676 15.7071 15.7071C16.0976 15.3166 16.0976 14.6834 15.7071 14.2929L13.415 12L15.7071 9.70711Z" />
<path fill-rule="evenodd" clip-rule="evenodd" d="M12 1C5.92487 1 1 5.92487 1 12C1 18.0751 5.92487 23 12 23C18.0751 23 23 18.0751 23 12C23 5.92487 18.0751 1 12 1ZM12 3C16.9706 3 21 7.02944 21 12C21 16.9706 16.9706 21 12 21C7.02944 21 3 16.9706 3 12C3 7.02944 7.02944 3 12 3Z" />
</svg>
