<svg viewBox="0 0 24 24" xmlns="http://www.w3.org/2000/svg">
<path d="M13.1 10.9001H6.5C6.20825 10.9001 5.92848 11.016 5.72213 11.2222C5.51588 11.4285 5.39998 11.7083 5.39998 12C5.39998 12.2917 5.51588 12.5716 5.72213 12.7779C5.92848 12.9841 6.20825 13.1 6.5 13.1H13.1C13.3917 13.1 13.6715 12.9841 13.8778 12.7779C14.084 12.5716 14.2 12.2917 14.2 12C14.2 11.7083 14.084 11.4285 13.8778 11.2222C13.6715 11.016 13.3918 10.9001 13.1 10.9001ZM17.5 6.5H6.5C6.20825 6.5 5.92848 6.61589 5.72213 6.82224C5.51588 7.02849 5.39998 7.30827 5.39998 7.60002C5.39998 7.89177 5.51588 8.17154 5.72213 8.37789C5.92848 8.58414 6.20825 8.70004 6.5 8.70004H17.5C17.7917 8.70004 18.0715 8.58414 18.2778 8.37789C18.484 8.17154 18.6 7.89177 18.6 7.60002C18.6 7.30827 18.484 7.02849 18.2778 6.82224C18.0716 6.61589 17.7917 6.5 17.5 6.5ZM19.7 1H4.29996C3.42472 1 2.58539 1.34768 1.96654 1.96654C1.34768 2.58539 1 3.42481 1 4.30006V15.3001C1 16.1752 1.34768 17.0146 1.96654 17.6335C2.58539 18.2523 3.42472 18.6 4.29996 18.6H17.049L21.119 22.681C21.2217 22.783 21.3438 22.8636 21.4777 22.9184C21.6117 22.9731 21.7553 23.0009 21.9001 23.0001C22.0443 23.0038 22.1874 22.9737 22.318 22.9121C22.5189 22.8296 22.6909 22.6894 22.8123 22.5094C22.9336 22.3291 22.999 22.1172 23 21.9001V4.30006C23 3.42481 22.6523 2.58539 22.0335 1.96654C21.4146 1.34768 20.5752 1 19.7 1ZM20.8001 19.2491L18.281 16.719C18.1783 16.6171 18.0563 16.5365 17.9223 16.4816C17.7883 16.427 17.6448 16.3991 17.5 16.4001H4.29996C4.00821 16.4001 3.72844 16.2841 3.52219 16.0778C3.31584 15.8716 3.19994 15.5918 3.19994 15.3001V4.30006C3.19994 4.00831 3.31584 3.72844 3.52219 3.52219C3.72844 3.31593 4.00821 3.20004 4.29996 3.20004H19.7C19.9918 3.20004 20.2716 3.31593 20.4778 3.52219C20.6841 3.72844 20.8001 4.00831 20.8001 4.30006V19.2491Z" />
</svg>
