<svg viewBox="0 0 24 24" xmlns="http://www.w3.org/2000/svg">
<path fill-rule="evenodd" clip-rule="evenodd" d="M1.00006 4.50006C1.00006 3.94777 1.44777 3.50006 2.00006 3.50006H22.0001C22.5523 3.50006 23.0001 3.94777 23.0001 4.50006V19.5001C23.0001 20.0523 22.5523 20.5001 22.0001 20.5001H2.00006C1.44777 20.5001 1.00006 20.0523 1.00006 19.5001V4.50006ZM3.00006 5.50006V18.5001H21.0001V5.50006H3.00006Z" />
<path fill-rule="evenodd" clip-rule="evenodd" d="M1.20006 3.90006C1.53143 3.45823 2.15823 3.36869 2.60006 3.70006L12.0001 10.7501L21.4001 3.70006C21.8419 3.36869 22.4687 3.45823 22.8001 3.90006C23.1314 4.34189 23.0419 4.96869 22.6001 5.30006L12.6001 12.8001C12.2445 13.0667 11.7556 13.0667 11.4001 12.8001L1.40006 5.30006C0.958231 4.96869 0.868688 4.34189 1.20006 3.90006Z" />
</svg>
