<svg viewBox="0 0 24 24" xmlns="http://www.w3.org/2000/svg">
<path fill-rule="evenodd" clip-rule="evenodd" d="M1.52299 8.12108C1.8453 7.94617 2.23749 7.9617 2.54496 8.16156L12 14.3073L21.455 8.16156C21.7624 7.9617 22.1546 7.94617 22.4769 8.12108C22.7993 8.296 23 8.63329 23 9V19.9091C23 20.9802 22.1847 22 21 22H2.99997C1.81529 22 0.99997 20.9802 0.99997 19.9091V9C0.99997 8.63329 1.20069 8.296 1.52299 8.12108ZM2.99997 10.8427V19.9091C2.99997 19.9558 3.01508 19.9856 3.02605 20H20.9739C20.9849 19.9856 21 19.9558 21 19.9091V10.8427L12.545 16.3384C12.2136 16.5539 11.7864 16.5539 11.455 16.3384L2.99997 10.8427Z" />
<path fill-rule="evenodd" clip-rule="evenodd" d="M11.4325 1.17661C11.7742 0.94113 12.2258 0.94113 12.5674 1.17661L22.5674 8.06856C23.0222 8.38197 23.1368 9.00468 22.8234 9.45943C22.51 9.91417 21.8872 10.0287 21.4325 9.71534L12 3.21449L2.56745 9.71534C2.1127 10.0287 1.48999 9.91417 1.17658 9.45943C0.863172 9.00468 0.977748 8.38197 1.43249 8.06856L11.4325 1.17661Z" />
</svg>
