<svg viewBox="0 0 24 24" xmlns="http://www.w3.org/2000/svg">
<path fill-rule="evenodd" clip-rule="evenodd" d="M3.40605 12.1604L12.0068 19.9509L20.6077 12.1604C22.6157 10.133 22.192 7.10843 20.4209 5.34272C19.5575 4.48194 18.4207 3.98364 17.166 4.07263C15.9112 4.16162 14.3825 4.85038 12.7782 6.66937C12.5829 6.89073 12.302 7.01755 12.0068 7.01755C11.7117 7.01755 11.4307 6.89074 11.2355 6.66937C9.63132 4.85051 8.09997 4.15896 6.84139 4.06777C5.58283 3.97658 4.4432 4.47312 3.5787 5.33153C1.80761 7.09014 1.3791 10.1142 3.40605 12.1604ZM12.0068 4.50194C10.3707 2.92939 8.65413 2.13679 6.99004 2.01622C5.06219 1.87653 3.35858 2.65139 2.12938 3.87192C-0.281941 6.26625 -1.04517 10.6182 1.96868 13.6321C1.98066 13.644 1.99292 13.6557 2.00548 13.6671L11.3164 22.1008C11.7083 22.4558 12.3054 22.4558 12.6973 22.1008L22.0083 13.6671C22.0208 13.6557 22.0331 13.644 22.045 13.6321C25.0441 10.633 24.276 6.28164 21.8731 3.88604C20.647 2.66366 18.9468 1.88423 17.0205 2.02085C15.3577 2.13877 13.6425 2.9299 12.0068 4.50194Z" />
</svg>
