<svg viewBox="0 0 24 24" xmlns="http://www.w3.org/2000/svg">
<path fill-rule="evenodd" clip-rule="evenodd" d="M12.0068 4.50194C10.3707 2.92939 8.65413 2.13679 6.99004 2.01622C5.06219 1.87653 3.35858 2.65139 2.12938 3.87192C-0.281941 6.26625 -1.04517 10.6182 1.96868 13.6321C1.98066 13.644 1.99292 13.6557 2.00548 13.6671L11.3164 22.1008C11.7083 22.4558 12.3054 22.4558 12.6973 22.1008L22.0083 13.6671C22.0208 13.6557 22.0331 13.644 22.045 13.6321C25.0441 10.633 24.276 6.28164 21.8731 3.88604C20.647 2.66366 18.9468 1.88423 17.0205 2.02085C15.3577 2.13877 13.6425 2.9299 12.0068 4.50194Z" />
</svg>
