<svg viewBox="0 0 24 24" xmlns="http://www.w3.org/2000/svg">
<path fill-rule="evenodd" clip-rule="evenodd" d="M12.0005 6.35174C8.88094 6.35174 6.35174 8.88094 6.35174 12.0005C6.35174 15.1201 8.88094 17.6493 12.0005 17.6493C15.1201 17.6493 17.6493 15.1201 17.6493 12.0005C17.6493 8.88094 15.1201 6.35174 12.0005 6.35174ZM12.0005 15.6673C9.97549 15.6673 8.33367 14.0255 8.33367 12.0005C8.33367 9.97549 9.97549 8.33367 12.0005 8.33367C14.0255 8.33367 15.6673 9.97549 15.6673 12.0005C15.6673 14.0255 14.0255 15.6673 12.0005 15.6673Z" />
<path d="M17.8727 7.44831C18.6014 7.44831 19.1927 6.85703 19.1927 6.12825C19.1927 5.39947 18.6014 4.80819 17.8727 4.80819C17.1439 4.80819 16.5526 5.39947 16.5526 6.12825C16.5526 6.85703 17.1439 7.44831 17.8727 7.44831Z" />
<path fill-rule="evenodd" clip-rule="evenodd" d="M12.0005 1C9.01295 1 8.63801 1.01283 7.46463 1.066C6.29399 1.11917 5.49462 1.30526 4.79517 1.57753C4.07097 1.85896 3.45769 2.23481 2.84625 2.84625C2.23481 3.45769 1.85896 4.07097 1.57753 4.79517C1.30526 5.49462 1.11917 6.29399 1.066 7.46463C1.01283 8.63801 1 9.01295 1 12.0005C1 14.9881 1.01283 15.3621 1.066 16.5355C1.11917 17.707 1.30526 18.5064 1.57753 19.2058C1.85896 19.9291 2.23481 20.5433 2.84625 21.1547C3.45769 21.7662 4.07097 22.142 4.79517 22.4235C5.49462 22.6957 6.29399 22.8818 7.46463 22.935C8.63801 22.9882 9.01295 23.001 12.0005 23.001C14.9881 23.001 15.3621 22.9882 16.5355 22.935C17.707 22.8818 18.5064 22.6957 19.2058 22.4235C19.9291 22.142 20.5433 21.7662 21.1547 21.1547C21.7662 20.5433 22.142 19.9291 22.4235 19.2058C22.6957 18.5064 22.8818 17.707 22.935 16.5355C22.9882 15.3621 23.001 14.9881 23.001 12.0005C23.001 9.01295 22.9882 8.63801 22.935 7.46463C22.8818 6.29399 22.6957 5.49462 22.4235 4.79517C22.142 4.07097 21.7662 3.45769 21.1547 2.84625C20.5433 2.23481 19.9291 1.85896 19.2058 1.57753C18.5064 1.30526 17.707 1.11917 16.5355 1.066C15.3621 1.01283 14.9881 1 12.0005 1ZM12.0005 2.98192C14.9376 2.98192 15.2851 2.99292 16.4456 3.04609C17.5182 3.09468 18.1003 3.27435 18.488 3.42469C19.0014 3.62454 19.3681 3.86288 19.7531 4.2479C20.1381 4.63291 20.3765 4.99868 20.5754 5.51295C20.7266 5.90072 20.9054 6.48283 20.9549 7.55538C21.0081 8.71502 21.0191 9.06337 21.0191 12.0005C21.0191 14.9376 21.0081 15.2851 20.9549 16.4456C20.9054 17.5182 20.7266 18.1003 20.5754 18.488C20.3765 19.0014 20.1381 19.3681 19.7531 19.7531C19.3681 20.1381 19.0014 20.3765 18.488 20.5754C18.1003 20.7266 17.5182 20.9054 16.4456 20.9549C15.2851 21.0081 14.9376 21.0191 12.0005 21.0191C9.06245 21.0191 8.71502 21.0081 7.55538 20.9549C6.48283 20.9054 5.90072 20.7266 5.51295 20.5754C4.99868 20.3765 4.63291 20.1381 4.2479 19.7531C3.86288 19.3681 3.62454 19.0014 3.42469 18.488C3.27435 18.1003 3.09468 17.5182 3.04609 16.4456C2.99292 15.2851 2.98192 14.9376 2.98192 12.0005C2.98192 9.06337 2.99292 8.71502 3.04609 7.55538C3.09468 6.48283 3.27435 5.90072 3.42469 5.51295C3.62454 4.99868 3.86288 4.63291 4.2479 4.2479C4.63291 3.86288 4.99868 3.62454 5.51295 3.42469C5.90072 3.27435 6.48283 3.09468 7.55538 3.04609C8.71502 2.99292 9.06337 2.98192 12.0005 2.98192Z" />
</svg>
