<svg viewBox="0 0 24 24" xmlns="http://www.w3.org/2000/svg">
<path fill-rule="evenodd" clip-rule="evenodd" d="M7 1C7.55228 1 8 1.44772 8 2V22C8 22.5523 7.55228 23 7 23C6.44772 23 6 22.5523 6 22V2C6 1.44772 6.44772 1 7 1Z" />
<path fill-rule="evenodd" clip-rule="evenodd" d="M4 1.5C4.55228 1.5 5 1.94772 5 2.5V7.5C5 7.90802 5.1164 8.15409 5.24962 8.32062C5.39538 8.50282 5.61218 8.65091 5.88462 8.76442C6.15612 8.87755 6.44158 8.93888 6.66882 8.97045C6.77985 8.98587 6.87066 8.99332 6.93051 8.99688C6.96028 8.99866 6.98193 8.99944 6.99408 8.99978L7 8.99991L7.00592 8.99978C7.01807 8.99944 7.03971 8.99866 7.06949 8.99688C7.12934 8.99332 7.22015 8.98587 7.33118 8.97045C7.55842 8.93888 7.84388 8.87755 8.11538 8.76442C8.38782 8.65091 8.60462 8.50282 8.75038 8.32062C8.8836 8.15409 9 7.90802 9 7.5V2.5C9 1.94772 9.44772 1.5 10 1.5C10.5523 1.5 11 1.94772 11 2.5V7.5C11 8.34198 10.7414 9.03341 10.3121 9.57001C9.89538 10.0909 9.36218 10.4116 8.88462 10.6106C8.40612 10.8099 7.94158 10.9049 7.60632 10.9514C7.4361 10.9751 7.29253 10.9871 7.18832 10.9934C7.13607 10.9965 7.09326 10.9981 7.06146 10.999C7.04554 10.9994 7.03234 10.9997 7.02205 10.9998L7.00879 11L7.00383 11L7.00177 11C7.00177 11 7 11 7 10C7 11 6.99915 11 6.99915 11L6.99617 11L6.99121 11L6.97795 10.9998C6.96766 10.9997 6.95446 10.9994 6.93854 10.999C6.90674 10.9981 6.86393 10.9965 6.81168 10.9934C6.70747 10.9871 6.5639 10.9751 6.39368 10.9514C6.05842 10.9049 5.59388 10.8099 5.11538 10.6106C4.63782 10.4116 4.10462 10.0909 3.68788 9.57001C3.2586 9.03341 3 8.34198 3 7.5V2.5C3 1.94772 3.44772 1.5 4 1.5Z" />
<path fill-rule="evenodd" clip-rule="evenodd" d="M19 1C19.5523 1 20 1.44772 20 2V22C20 22.5523 19.5523 23 19 23C18.4477 23 18 22.5523 18 22V11.5H15C14.4477 11.5 14 11.0523 14 10.5V6C14 4.82502 14.2966 3.8773 14.7929 3.1328C15.2851 2.39456 15.9342 1.91489 16.5528 1.60557C17.1675 1.29822 17.7701 1.14952 18.2106 1.07611C18.4332 1.039 18.6209 1.02007 18.7569 1.01035C18.825 1.00549 18.8807 1.0029 18.9218 1.00153C18.9423 1.00085 18.9593 1.00046 18.9724 1.00025L18.9892 1.00005L18.9953 1.00001L18.9979 1L18.999 1C18.999 1 19 1 19 2V1ZM18 3.17535C17.8203 3.23036 17.6324 3.30184 17.4472 3.39443C17.0658 3.58511 16.7149 3.85544 16.4571 4.2422C16.2034 4.6227 16 5.17498 16 6V9.5H18V3.17535Z" />
</svg>
