<svg viewBox="0 0 24 24" xmlns="http://www.w3.org/2000/svg">
<path fill-rule="evenodd" clip-rule="evenodd" d="M13.1716 10.0886C13.18 10.0747 13.1911 10.0607 13.1995 10.0468V10.0886H13.1716ZM2.25355 21.1167H6.53887V8.219H2.25355V21.1167ZM6.82168 4.22903C6.79521 2.96406 5.89245 2 4.42547 2C2.95848 2 2 2.96406 2 4.22903C2 5.46754 2.92923 6.45807 4.36835 6.45807H4.39621C5.89245 6.45807 6.82168 5.46754 6.82168 4.22903ZM22 13.7219C22 9.75843 19.8838 7.91669 17.0627 7.91669C14.7849 7.91669 13.7693 9.16774 13.1995 10.0468V8.219H8.91279C8.96991 9.42825 8.91279 21.1167 8.91279 21.1167H13.1995V13.9142C13.1995 13.5283 13.226 13.1424 13.3416 12.8679C13.6509 12.0975 14.3558 11.2992 15.54 11.2992C17.0919 11.2992 17.7119 12.482 17.7119 14.2165V21.1167H22V13.7219Z" />
</svg>
