<svg viewBox="0 0 24 24" xmlns="http://www.w3.org/2000/svg">
<path fill-rule="evenodd" clip-rule="evenodd" d="M2.7166 2C1.21635 2 0.000153459 3.21621 0.000153459 4.71645V5.11955C-5.13777e-05 5.1314 -5.0928e-05 5.14324 0.000153459 5.15507V19.0635C0.000153459 20.5638 1.21636 21.78 2.7166 21.78H21.2834C22.7837 21.78 23.9998 20.5638 23.9998 19.0635V5.15523C24.0001 5.14329 24.0001 5.13135 23.9998 5.11939V4.71645C23.9998 3.21622 22.7837 2 21.2834 2H2.7166ZM21.9257 4.56687C21.8579 4.27479 21.5961 4.05712 21.2834 4.05712H2.7166C2.40391 4.05712 2.14206 4.27479 2.07431 4.56687L11.4441 10.2019C11.571 10.2754 11.7677 10.3338 12 10.3338C12.2323 10.3338 12.429 10.2754 12.5559 10.2019L21.9257 4.56687ZM2.05727 6.95711V19.0635C2.05727 19.4277 2.35245 19.7228 2.7166 19.7228H21.2834C21.6476 19.7228 21.9427 19.4277 21.9427 19.0635V6.95711L13.601 11.9739C13.1212 12.2556 12.5549 12.3909 12 12.3909C11.4451 12.3909 10.8788 12.2555 10.399 11.9738L10.3896 11.9683L2.05727 6.95711Z" />
</svg>
