<svg viewBox="0 0 24 24" xmlns="http://www.w3.org/2000/svg">
<path d="M7 12C7 12.5523 7.44772 13 8 13H16L16.1332 12.993C17.2889 12.869 17.2889 11.131 16.1332 11.007L16 11H8L7.88338 11.0067C7.38604 11.0645 7 11.4872 7 12Z" />
<path fill-rule="evenodd" clip-rule="evenodd" d="M12 1C5.92487 1 1 5.92487 1 12C1 18.0751 5.92487 23 12 23C18.0751 23 23 18.0751 23 12C23 5.92487 18.0751 1 12 1ZM12 3C16.9706 3 21 7.02944 21 12C21 16.9706 16.9706 21 12 21C7.02944 21 3 16.9706 3 12C3 7.02944 7.02944 3 12 3Z" />
</svg>
