<svg viewBox="0 0 24 24" xmlns="http://www.w3.org/2000/svg">
<path fill-rule="evenodd" clip-rule="evenodd" d="M12.01 1C5.93013 1 1.00098 5.92105 1.00098 11.991C1.00098 16.6497 3.90048 20.6299 7.99602 22.2311C7.89635 21.3627 7.8148 20.0238 8.03226 19.074C8.2316 18.2146 9.31892 13.6102 9.31892 13.6102C9.31892 13.6102 8.99272 12.9498 8.99272 11.9819C8.99272 10.4531 9.88069 9.31332 10.9861 9.31332C11.9285 9.31332 12.3815 10.0189 12.3815 10.8602C12.3815 11.801 11.7835 13.2122 11.4664 14.5238C11.2036 15.6184 12.0191 16.514 13.0973 16.514C15.0545 16.514 16.5586 14.4515 16.5586 11.4844C16.5586 8.85197 14.6649 7.01562 11.9556 7.01562C8.82056 7.01562 6.98119 9.35855 6.98119 11.7829C6.98119 12.7237 7.34363 13.7368 7.79668 14.2887C7.88729 14.3972 7.89635 14.4967 7.86917 14.6053C7.78762 14.949 7.59734 15.6998 7.56109 15.8536C7.51579 16.0526 7.398 16.0979 7.1896 15.9984C5.81233 15.3561 4.95154 13.3569 4.95154 11.7377C4.95154 8.27303 7.47048 5.08882 12.2275 5.08882C16.0421 5.08882 19.0141 7.80263 19.0141 11.4391C19.0141 15.2294 16.622 18.278 13.3057 18.278C12.1912 18.278 11.1402 17.699 10.7868 17.0115C10.7868 17.0115 10.2341 19.1102 10.0982 19.6258C9.85351 20.5847 9.183 21.7788 8.72995 22.5115C9.7629 22.8281 10.8502 23 11.9919 23C18.0718 23 23.0009 18.0789 23.0009 12.009C23.019 5.92105 18.0899 1 12.01 1Z" />
</svg>
