<svg viewBox="0 0 24 24" xmlns="http://www.w3.org/2000/svg">
<path d="M16.0317 12C16.0317 11.4319 16.4922 10.9714 17.0603 10.9714H18.7482C19.3163 10.9714 19.7768 11.4319 19.7768 12C19.7768 12.5681 19.3163 13.0286 18.7482 13.0286H17.0603C16.4922 13.0286 16.0317 12.5681 16.0317 12Z" />
<path fill-rule="evenodd" clip-rule="evenodd" d="M6.9328 0C6.43621 0 5.95991 0.197256 5.60873 0.548444C5.25759 0.899603 5.06027 1.37591 5.06027 1.87253V6.75022H2.85714C1.27919 6.75022 0 8.02941 0 9.60737V16.9217C0 18.4996 1.27919 19.7788 2.85714 19.7788H5.06027V22.1276C5.06027 22.6242 5.25755 23.1004 5.60861 23.4516C5.95963 23.8024 6.43611 24.0001 6.9328 24.0001H17.0603C17.5569 24.0001 18.033 23.8027 18.384 23.4521L18.3848 23.4513C18.7355 23.1003 18.9328 22.6242 18.9328 22.1276V19.7788H21.1429C22.7208 19.7788 24 18.4996 24 16.9217V9.60737C24 8.02941 22.7208 6.75022 21.1429 6.75022H18.9328V1.87253C18.9328 1.37583 18.7354 0.899717 18.3847 0.548715C18.0335 0.197653 17.5569 0 17.0603 0H6.9328ZM17.8496 8.80737C17.8677 8.80831 17.8859 8.80879 17.9042 8.80879C17.9225 8.80879 17.9408 8.80831 17.9589 8.80737H21.1429C21.5847 8.80737 21.9429 9.16554 21.9429 9.60737V16.9217C21.9429 17.3635 21.5847 17.7217 21.1429 17.7217H18.9328V16.2199C18.9328 15.6518 18.4723 15.1913 17.9042 15.1913H6.08884C5.52078 15.1913 5.06027 15.6518 5.06027 16.2199V17.7217H2.85714C2.41532 17.7217 2.05714 17.3635 2.05714 16.9217V9.60737C2.05714 9.16554 2.41532 8.80737 2.85714 8.80737H6.03421C6.0523 8.80831 6.07051 8.80879 6.08884 8.80879C6.10716 8.80879 6.12538 8.80831 6.14347 8.80737H17.8496ZM16.8757 6.75022V2.05714H7.11741V6.75022H16.8757ZM7.11741 21.9429V17.2484H16.8757V21.9429H7.11741Z" />
</svg>
