<svg viewBox="0 0 24 24" xmlns="http://www.w3.org/2000/svg">
<path fill-rule="evenodd" clip-rule="evenodd" d="M17.1604 12.8926C17.2219 13.0512 17.2503 13.2144 17.2503 13.3765C17.2503 13.7042 17.1379 14.0213 16.9474 14.2816C16.7605 14.5371 16.4943 14.7359 16.182 14.8234H16.1832C16.1796 14.8246 16.1773 14.8246 16.1761 14.8258C16.1749 14.8258 16.1725 14.827 16.1713 14.827C16.0258 14.8767 15.8756 14.9003 15.7265 14.9003C15.3775 14.9003 15.0344 14.7749 14.7611 14.5608C14.489 14.3466 14.2831 14.0402 14.2193 13.6758H14.2181C14.2181 13.6747 14.2181 13.6735 14.2181 13.6723C14.2181 13.6711 14.2181 13.6699 14.2169 13.6687H14.2181C14.198 13.5753 14.1873 13.4806 14.1873 13.3883C14.1873 13.0736 14.2938 12.7708 14.4713 12.5211C14.6475 12.2715 14.8972 12.0751 15.1882 11.9734C15.1894 11.9734 15.1906 11.9722 15.1906 11.9722C15.1917 11.9722 15.1917 11.971 15.1929 11.971C15.3574 11.9107 15.5313 11.8799 15.704 11.8799C16.0175 11.8799 16.3263 11.9746 16.5866 12.1485C16.8445 12.32 17.0527 12.5708 17.158 12.882C17.1592 12.8844 17.1592 12.8855 17.1592 12.8879C17.1592 12.8903 17.1604 12.8915 17.1616 12.8926H17.1604ZM16.2009 16.7589C16.0779 16.6785 15.9359 16.6312 15.7857 16.6312C15.6638 16.6312 15.5372 16.6655 15.426 16.74C14.3648 17.373 13.1178 17.7196 11.8803 17.7196C10.9504 17.7196 10.0276 17.5232 9.19116 17.1127L9.18642 17.1103L9.18288 17.1091C9.05629 17.0571 8.91195 16.9471 8.75578 16.8429C8.67533 16.7921 8.59252 16.74 8.50024 16.7022C8.40914 16.6643 8.30858 16.6371 8.19973 16.6371C8.10982 16.6371 8.01636 16.6572 7.92289 16.6986C7.91816 16.701 7.91461 16.7022 7.90988 16.7045C7.76436 16.7601 7.6496 16.8619 7.57625 16.9825C7.49935 17.108 7.46267 17.2523 7.46267 17.3966C7.46267 17.5268 7.49343 17.6569 7.55732 17.7752C7.61766 17.8876 7.70994 17.9846 7.8318 18.0509C9.02789 18.8577 10.4358 19.2221 11.8495 19.2209C13.1237 19.2209 14.405 18.9264 15.5467 18.3892L15.5585 18.3821C15.7088 18.2934 15.9087 18.2141 16.098 18.097C16.1915 18.0379 16.2814 17.9692 16.3606 17.8793C16.4387 17.7906 16.5014 17.6818 16.5369 17.5516C16.5511 17.4936 16.5582 17.438 16.5582 17.3824C16.5582 17.276 16.5322 17.1766 16.4896 17.0855C16.4257 16.9494 16.3216 16.8382 16.2009 16.7589ZM7.80577 14.8187C7.80813 14.8187 7.8105 14.8199 7.81287 14.8211C7.96548 14.8767 8.12283 14.9039 8.279 14.9039C8.66705 14.9039 9.04446 14.7453 9.33076 14.4862C9.61588 14.226 9.81109 13.858 9.81109 13.438C9.81109 13.4274 9.81109 13.4167 9.81109 13.4037C9.81228 13.3848 9.81227 13.3635 9.81227 13.3434C9.81227 12.9269 9.61943 12.5578 9.33668 12.2964C9.05274 12.0349 8.67652 11.8752 8.2861 11.8752C8.18199 11.8752 8.07669 11.887 7.97258 11.9119C7.9714 11.9119 7.97022 11.9119 7.96785 11.9119H7.96667C7.45084 12.0195 6.99772 12.4028 6.82973 12.9305C6.82973 12.9317 6.82973 12.9329 6.82973 12.9329C6.78122 13.0772 6.75874 13.2263 6.75874 13.373C6.75874 13.6959 6.8664 14.0106 7.04978 14.2697C7.23197 14.5241 7.48988 14.724 7.79985 14.8175C7.80222 14.8175 7.8034 14.8175 7.80577 14.8187ZM23.9962 11.0553C23.9998 11.1074 24.001 11.1594 24.001 11.2115C24.001 11.7947 23.8141 12.3555 23.5017 12.8311C23.2107 13.276 22.8084 13.6486 22.347 13.9006C22.3766 14.1325 22.3932 14.3668 22.3932 14.5998C22.3932 15.8551 21.9602 17.089 21.2065 18.0781H21.2054C19.8117 19.932 17.6727 21.024 15.5124 21.5753H15.5112L15.51 21.5765C14.3577 21.8568 13.1699 22 11.982 22C10.2122 22 8.44227 21.6806 6.79187 21.018V21.0169H6.7895C5.07876 20.3117 3.44729 19.1902 2.44759 17.5469C1.90929 16.6702 1.6147 15.6421 1.6147 14.6093C1.6147 14.375 1.63008 14.1408 1.66084 13.9089C1.21127 13.6557 0.820852 13.2961 0.530997 12.8666C0.222213 12.4052 0.0258213 11.8657 0.000976562 11.2943V11.2848C0.00215964 10.4851 0.348803 9.72789 0.889471 9.16829C1.42896 8.60988 2.1672 8.24549 2.9575 8.24549C2.96933 8.24549 2.97998 8.24549 2.99062 8.24549C3.07344 8.23957 3.15744 8.23602 3.24144 8.23602C3.63895 8.23602 4.03647 8.29991 4.41506 8.44543L4.41742 8.44661L4.4186 8.4478C4.74277 8.58385 5.06338 8.74712 5.34851 8.97427C5.44197 8.92576 5.54253 8.87134 5.65611 8.82875C7.38932 7.80183 9.40411 7.4055 11.368 7.29193C11.3846 6.31943 11.5041 5.3008 11.9785 4.40994C12.3736 3.66933 13.0587 3.09317 13.875 2.89323L13.8785 2.89204L13.8833 2.89086C14.1944 2.83052 14.5079 2.80331 14.8191 2.80331C15.6484 2.80331 16.4683 2.9997 17.2361 3.30612C17.5757 2.79385 18.0607 2.39397 18.6286 2.16918L18.6345 2.16681L18.6392 2.16445C18.9741 2.06034 19.3266 2 19.6804 2C20.053 2 20.4293 2.06744 20.7818 2.22479V2.2236C20.783 2.22479 20.783 2.22479 20.783 2.22479C20.7865 2.22597 20.7877 2.22715 20.7901 2.22715C21.2953 2.42236 21.7235 2.78202 22.0264 3.22922C22.3305 3.67879 22.5091 4.21591 22.5091 4.76959C22.5091 4.87134 22.5032 4.97308 22.4914 5.07601L22.4902 5.0772C22.4902 5.07956 22.4902 5.08075 22.4902 5.08311C22.4298 5.79769 22.069 6.42473 21.5555 6.87193C21.0397 7.3215 20.3725 7.59243 19.6875 7.59243C19.5774 7.59243 19.4662 7.58651 19.3562 7.57113C18.6759 7.51908 18.043 7.19018 17.5768 6.70157C17.1095 6.21295 16.809 5.55989 16.809 4.85596C16.809 4.82165 16.8114 4.78616 16.8126 4.75303C16.1749 4.46791 15.497 4.23248 14.8238 4.23366C14.7268 4.23366 14.6286 4.23839 14.5316 4.24904H14.5304C14.0264 4.29754 13.5579 4.61461 13.3308 5.07246V5.07365C12.9853 5.74564 12.9167 6.53002 12.906 7.30967C14.8392 7.43508 16.783 7.89885 18.489 8.87962H18.4914L18.5162 8.89382C18.5482 8.91275 18.6085 8.94587 18.6629 8.97427C18.78 8.87962 18.9031 8.78261 19.045 8.69743C19.5621 8.35315 20.1749 8.18279 20.7865 8.18279C21.0587 8.18279 21.3308 8.2171 21.5946 8.28453L21.6076 8.28808C21.6112 8.28808 21.6135 8.28926 21.6171 8.28926V8.29045C22.2406 8.44898 22.8061 8.80745 23.2308 9.29015C23.6555 9.77403 23.9406 10.3869 23.9962 11.0518V11.0553ZM18.3033 4.72819C18.3033 4.75422 18.3033 4.78024 18.3056 4.80745V4.81219C18.3186 5.14818 18.4772 5.46051 18.7185 5.6924C18.9599 5.9231 19.2817 6.06625 19.6082 6.06744H19.6165C19.6401 6.06862 19.6638 6.06862 19.6863 6.06862C20.0152 6.0698 20.3429 5.92783 20.5878 5.69713C20.8339 5.46643 20.9959 5.15173 21.009 4.81337V4.80982C21.0113 4.78379 21.0125 4.75895 21.0125 4.73292C21.0125 4.38391 20.8492 4.05146 20.5937 3.80538C20.3405 3.56049 19.9974 3.40787 19.6602 3.40905C19.5514 3.40905 19.4437 3.42325 19.3384 3.45637H19.3337L19.3314 3.45756C19.0533 3.52972 18.7919 3.70127 18.6049 3.92961C18.4168 4.15558 18.3033 4.43597 18.3033 4.72819ZM4.03647 9.90772C3.77737 9.78823 3.51 9.70186 3.24617 9.70305C3.2024 9.70305 3.15744 9.70541 3.11367 9.71014H3.10657L3.10065 9.71133C2.72206 9.72198 2.33875 9.88761 2.05244 10.1526C1.76377 10.4164 1.57448 10.7726 1.5591 11.1653V11.1724C1.55673 11.2044 1.55555 11.2363 1.55555 11.2671C1.55555 11.5084 1.63008 11.7439 1.75549 11.9568C1.84895 12.1154 1.97199 12.2609 2.11041 12.3863C2.55288 11.4161 3.24499 10.5927 4.03647 9.90772ZM20.8729 14.6542C20.8729 13.7894 20.5606 12.921 20.0566 12.2206C19.0486 10.8199 17.4857 9.90535 15.8614 9.39544L15.8495 9.3919C15.5372 9.29607 15.2225 9.21088 14.9043 9.13872C13.9542 8.92221 12.9806 8.81455 12.0081 8.81455C10.7008 8.81455 9.39465 9.00858 8.14413 9.39426C6.51857 9.91009 4.95099 10.8175 3.94655 12.223V12.2242C3.43665 12.9269 3.13851 13.7989 3.13851 14.6661C3.13851 14.9855 3.17873 15.3049 3.26273 15.6161L3.26392 15.6173C3.44729 16.3141 3.80458 16.9376 4.26717 17.4806C4.73094 18.0237 5.29882 18.4874 5.89627 18.866C6.0276 18.9476 6.16128 19.0257 6.29734 19.1026C8.03174 20.0704 10.03 20.4951 12.0128 20.4951C12.3488 20.4951 12.686 20.4833 13.0196 20.4596C15.0167 20.2952 17.022 19.7048 18.644 18.5004V18.4993C19.1598 18.1171 19.639 17.6557 20.0164 17.1304C20.3961 16.6051 20.6741 16.0172 20.7972 15.3795L20.7984 15.3771C20.8492 15.1381 20.8729 14.8968 20.8729 14.6542ZM22.45 11.2127C22.45 11.0021 22.4015 10.7938 22.2962 10.5986L22.2938 10.5963L22.2926 10.5927C22.1518 10.3029 21.9306 10.0852 21.6644 9.93611C21.3982 9.78586 21.087 9.70896 20.7747 9.70896C20.492 9.70896 20.2116 9.77285 19.9619 9.89825C20.7546 10.5868 21.4503 11.4138 21.901 12.3886C22.0453 12.2621 22.1684 12.1083 22.2607 11.9367C22.3813 11.7131 22.45 11.4611 22.45 11.2127Z" />
</svg>
