<svg viewBox="0 0 24 24" xmlns="http://www.w3.org/2000/svg">
<path fill-rule="evenodd" clip-rule="evenodd" d="M17.536 20.7188H21.001C21.001 10.9537 12.9235 3 3.00098 3V6.3975C11.011 6.3975 17.536 12.8212 17.536 20.7188ZM11.416 20.7188H14.881C14.881 14.2725 9.54848 9.01875 3.00098 9.01875V12.4163C5.25098 12.4163 7.35473 13.2825 8.95223 14.8463C10.5385 16.41 11.416 18.5025 11.416 20.7188ZM5.39723 20.6962C6.71348 20.6962 7.79348 19.65 7.79348 18.345C7.79348 17.0512 6.71348 15.9937 5.39723 15.9937C4.06973 15.9937 3.00098 17.0512 3.00098 18.345C3.00098 19.65 4.06973 20.6962 5.39723 20.6962Z" />
</svg>
