<svg viewBox="0 0 24 24" xmlns="http://www.w3.org/2000/svg">
<path fill-rule="evenodd" clip-rule="evenodd" d="M2 10.5C2 5.8056 5.8056 2 10.5 2C15.1944 2 19 5.8056 19 10.5C19 15.1944 15.1944 19 10.5 19C5.8056 19 2 15.1944 2 10.5ZM10.5 4C6.91017 4 4 6.91017 4 10.5C4 14.0898 6.91017 17 10.5 17C14.0898 17 17 14.0898 17 10.5C17 6.91017 14.0898 4 10.5 4Z" />
<path fill-rule="evenodd" clip-rule="evenodd" d="M15.2929 15.2929C15.6834 14.9024 16.3166 14.9024 16.7071 15.2929L22.5606 21.1464C22.9511 21.5369 22.9511 22.1701 22.5606 22.5606C22.17 22.9511 21.5369 22.9511 21.1463 22.5606L15.2929 16.7071C14.9024 16.3166 14.9024 15.6834 15.2929 15.2929Z" />
</svg>
