<svg viewBox="0 0 24 24" xmlns="http://www.w3.org/2000/svg">
<path fill-rule="evenodd" clip-rule="evenodd" d="M0.950195 6C0.950195 5.4201 1.4203 4.95 2.0002 4.95H22.0002C22.5801 4.95 23.0502 5.4201 23.0502 6V10C23.0502 10.3688 22.8567 10.7106 22.5404 10.9004L21.8412 11.3199C20.4003 12.1845 18.6001 12.1845 17.1592 11.3199L17.0002 11.2245L16.8412 11.3199C15.4003 12.1845 13.6001 12.1845 12.1592 11.3199L12.0002 11.2245L11.8412 11.3199C10.4003 12.1845 8.60014 12.1845 7.15923 11.3199L7.0002 11.2245L6.84117 11.3199C5.40025 12.1845 3.60014 12.1845 2.15923 11.3199L1.45998 10.9004C1.14371 10.7106 0.950195 10.3688 0.950195 10V6ZM3.0502 7.05V9.40549L3.23967 9.51918C4.01554 9.98471 4.98484 9.98472 5.76072 9.51919L6.45998 9.09963C6.79249 8.90012 7.2079 8.90012 7.54042 9.09963L8.23967 9.51918C9.01555 9.98472 9.98484 9.98472 10.7607 9.51919L11.46 9.09963C11.7925 8.90012 12.2079 8.90012 12.5404 9.09963L13.2397 9.51918C14.0155 9.98472 14.9848 9.98472 15.7607 9.51919L16.46 9.09963C16.7925 8.90012 17.2079 8.90012 17.5404 9.09963L18.2397 9.51918C19.0155 9.98472 19.9848 9.98472 20.7607 9.51919L20.9502 9.4055V7.05H3.0502Z" />
<path fill-rule="evenodd" clip-rule="evenodd" d="M20.0002 10C20.5525 10 21.0002 10.4477 21.0002 11V22C21.0002 22.5523 20.5525 23 20.0002 23H4.0002C3.44791 23 3.0002 22.5523 3.0002 22V11.2444C3.0002 10.6922 3.44791 10.2444 4.0002 10.2444C4.55248 10.2444 5.0002 10.6922 5.0002 11.2444V21H19.0002V11C19.0002 10.4477 19.4479 10 20.0002 10Z" />
<path fill-rule="evenodd" clip-rule="evenodd" d="M3.0002 2C3.0002 1.44772 3.44791 1 4.0002 1H20.0002C20.5525 1 21.0002 1.44772 21.0002 2V6C21.0002 6.55228 20.5525 7 20.0002 7C19.4479 7 19.0002 6.55228 19.0002 6V3H5.0002V5.9111C5.0002 6.46338 4.55248 6.9111 4.0002 6.9111C3.44791 6.9111 3.0002 6.46338 3.0002 5.9111V2Z" />
<path fill-rule="evenodd" clip-rule="evenodd" d="M8.5002 16C8.5002 15.4477 8.94791 15 9.5002 15H14.5002C15.0525 15 15.5002 15.4477 15.5002 16V22C15.5002 22.5523 15.0525 22 14.5002 22H9.5002C8.94791 22 8.5002 22.5523 8.5002 22V16ZM10.5002 17V21H13.5002V17H10.5002Z" />
</svg>
