<svg viewBox="0 0 24 24" xmlns="http://www.w3.org/2000/svg">
<path fill-rule="evenodd" clip-rule="evenodd" d="M2.00006 6.30005C2.00006 5.74777 2.44778 5.30005 3.00006 5.30005H21.0001C21.5523 5.30005 22.0001 5.74777 22.0001 6.30005V20.5C22.0001 21.6046 21.1046 22.5 20.0001 22.5H4.00006C2.8955 22.5 2.00006 21.6046 2.00006 20.5V6.30005ZM4.00006 7.30005V20.5H20.0001V7.30005H4.00006Z" />
<path fill-rule="evenodd" clip-rule="evenodd" d="M5.03173 1.90225C5.22047 1.64912 5.51766 1.5 5.83341 1.5H18.1667C18.4825 1.5 18.7797 1.64912 18.9684 1.90225L21.8017 5.70225C22.1319 6.14501 22.0406 6.77156 21.5978 7.10168C21.1551 7.43181 20.5285 7.34051 20.1984 6.89775L17.665 3.5H6.33517L3.80174 6.89775C3.47162 7.34051 2.84507 7.43181 2.40231 7.10168C1.95955 6.77155 1.86825 6.14501 2.19838 5.70225L5.03173 1.90225Z" />
<path fill-rule="evenodd" clip-rule="evenodd" d="M8.22221 8.6001C8.7745 8.6001 9.22221 9.04781 9.22221 9.6001C9.22221 11.152 10.4714 12.4001 12 12.4001C13.5286 12.4001 14.7778 11.1521 14.7778 9.6001C14.7778 9.04781 15.2255 8.6001 15.7778 8.6001C16.33 8.6001 16.7778 9.04781 16.7778 9.6001C16.7778 12.2455 14.6442 14.4001 12 14.4001C9.35582 14.4001 7.22221 12.2456 7.22221 9.6001C7.22221 9.04781 7.66993 8.6001 8.22221 8.6001Z" />
</svg>
