<svg viewBox="0 0 24 24" xmlns="http://www.w3.org/2000/svg">
<path fill-rule="evenodd" clip-rule="evenodd" d="M12.2137 1.5C12.1948 1.5 12.176 1.5 12.1591 1.50041C12.1591 1.50041 11.8064 1.50394 11.7784 1.50394C10.8709 1.50394 7.79518 1.76071 6.34402 5.0648C5.85598 6.17638 5.97294 8.06428 6.06681 9.58141C6.07784 9.76033 6.08962 9.94596 6.09969 10.1254C6.02461 10.1676 5.88743 10.2202 5.6717 10.2202C5.38368 10.2202 5.04323 10.1279 4.65997 9.94534C4.5582 9.89694 4.4409 9.87275 4.31129 9.87275C3.8624 9.87275 3.32556 10.1727 3.2419 10.6197C3.18158 10.9415 3.32345 11.4112 4.3424 11.82C4.43437 11.8569 4.54492 11.8924 4.6616 11.9298C5.08258 12.0657 5.71895 12.2707 5.89159 12.6838C5.98097 12.8977 5.9453 13.1732 5.78573 13.5021C5.78226 13.5096 5.77879 13.5169 5.77559 13.5246C5.71963 13.6569 4.3729 16.7748 1.38303 17.2745C1.15314 17.3131 0.988878 17.5214 1.00168 17.7576C1.00556 17.8279 1.02196 17.8979 1.05035 17.9657C1.27473 18.4985 2.22138 18.8889 3.94484 19.1605C4.00243 19.2397 4.06234 19.5192 4.09896 19.6895C4.13497 19.8574 4.17214 20.0307 4.22511 20.2135C4.27705 20.3932 4.41204 20.608 4.75888 20.608C4.89905 20.608 5.06434 20.5752 5.2557 20.537C5.54291 20.48 5.93604 20.4021 6.42829 20.4021C6.70114 20.4021 6.9842 20.4262 7.26902 20.4741C7.82513 20.5683 8.29778 20.9074 8.84483 21.3003C9.62844 21.8629 10.5159 22.5 11.8648 22.5C11.9019 22.5 11.9391 22.4988 11.9759 22.4961C12.0197 22.4981 12.0765 22.5 12.137 22.5C13.4863 22.5 14.3736 21.8628 15.1567 21.3004C15.705 20.9071 16.1773 20.5681 16.7335 20.4741C17.0178 20.4262 17.3009 20.4021 17.5738 20.4021C18.0435 20.4021 18.415 20.4627 18.7464 20.5284C18.9541 20.5697 19.1212 20.5907 19.2433 20.5907L19.256 20.5909H19.2684C19.5247 20.5909 19.7054 20.4534 19.7772 20.2039C19.829 20.0249 19.8663 19.8561 19.9031 19.6852C19.9396 19.5154 19.9993 19.2372 20.0567 19.1585C21.7806 18.8867 22.7271 18.4969 22.951 17.9665C22.9798 17.8985 22.9963 17.828 23.0003 17.7571C23.0133 17.5208 22.8489 17.3128 22.619 17.2743C19.6278 16.7737 18.2823 13.6566 18.2264 13.5244C18.2232 13.5168 18.2199 13.5092 18.2161 13.5019C18.0564 13.173 18.0211 12.8977 18.1104 12.6838C18.283 12.2707 18.919 12.0657 19.3401 11.9301C19.4578 11.8921 19.5684 11.8564 19.6595 11.82C20.4052 11.5208 20.7792 11.1535 20.7713 10.7282C20.7649 10.3941 20.5087 10.0961 20.1015 9.94831L20.1003 9.9479C19.9633 9.89017 19.8007 9.85864 19.6415 9.85864C19.5326 9.85864 19.3712 9.87371 19.2203 9.94534C18.8656 10.1142 18.5468 10.2059 18.272 10.2184C18.0897 10.2098 17.9705 10.1632 17.9025 10.1251C17.9111 9.97113 17.9208 9.81267 17.9311 9.64709L17.9349 9.58272C18.0293 8.06463 18.1463 6.17513 17.6578 5.06273C16.2061 1.75719 13.1238 1.5 12.2137 1.5Z" />
</svg>
