<svg viewBox="0 0 24 24" xmlns="http://www.w3.org/2000/svg">
<path d="M6.48566 22.9869C6.12224 22.9869 5.66796 22.896 5.30454 22.6234C4.75941 22.1692 4.396 21.4423 4.57771 20.7155L5.48625 15.1733L1.5795 11.2666C1.03437 10.7215 0.85266 9.99462 1.12522 9.26778C1.30693 8.54095 1.94292 7.99582 2.66976 7.90496L7.93933 7.08727L10.3016 2.09026C10.665 1.36342 11.301 1 12.0278 1C12.7546 1 13.4815 1.45427 13.754 2.09026L16.1163 7.08727L21.3858 7.90496C22.1127 7.99582 22.7487 8.54095 22.9304 9.26778C23.1121 9.99462 22.9304 10.7215 22.4761 11.2666L18.6602 15.2642L19.5687 20.8063C19.6596 21.5332 19.387 22.26 18.8419 22.7143C18.2059 23.1686 17.3882 23.2594 16.7522 22.896L12.0278 20.1704L7.30335 22.8051C7.12164 22.896 6.75822 22.9869 6.48566 22.9869ZM12.0278 17.9898C12.2095 17.9898 12.3912 17.9898 12.5729 18.0807L17.5699 20.8972L16.5705 15.0825C16.4797 14.7191 16.6614 14.4465 16.8431 14.1739L21.0224 9.90377L15.3894 9.08607C15.026 8.99522 14.7534 8.81351 14.5717 8.54095L12.1187 3.27137L9.57472 8.45009C9.48386 8.81351 9.2113 8.99522 8.84788 9.08607L3.12403 9.99462L7.30335 14.2648C7.57591 14.5374 7.66677 14.8099 7.57591 15.1733L6.57651 20.988L11.5735 18.2624C11.7552 17.9898 11.9369 17.9898 12.0278 17.9898Z" />
</svg>
