<svg viewBox="0 0 24 24" xmlns="http://www.w3.org/2000/svg">
<path d="M6.48566 22.9869C6.12224 22.9869 5.66796 22.896 5.30454 22.6234C4.75941 22.1692 4.396 21.4423 4.57771 20.7155L5.48625 15.1733L1.5795 11.2666C1.03437 10.7215 0.85266 9.99462 1.12522 9.26778C1.30693 8.54095 1.94292 7.99582 2.66976 7.90496L7.93933 7.08727L10.3016 2.09026C10.665 1.36342 11.301 1 12.0278 1C12.7546 1 13.4815 1.45427 13.754 2.09026L16.1163 7.08727L21.3858 7.90496C22.1127 7.99582 22.7487 8.54095 22.9304 9.26778C23.1121 9.99462 22.9304 10.7215 22.4761 11.2666L18.6602 15.2642L19.5687 20.8063C19.6596 21.5332 19.387 22.26 18.8419 22.7143C18.2059 23.1686 17.3882 23.2594 16.7522 22.896L12.0278 20.1704L7.30335 22.8051C7.12164 22.896 6.75822 22.9869 6.48566 22.9869Z" />
</svg>
