<svg viewBox="0 0 24 24" xmlns="http://www.w3.org/2000/svg">
<path fill-rule="evenodd" clip-rule="evenodd" d="M2.5 13.5C2.5 8.25332 6.75332 4 12 4C17.2467 4 21.5 8.25332 21.5 13.5C21.5 18.7467 17.2467 23 12 23C6.75332 23 2.5 18.7467 2.5 13.5ZM12 6C7.85788 6 4.5 9.35789 4.5 13.5C4.5 17.6421 7.85788 21 12 21C16.1421 21 19.5 17.6421 19.5 13.5C19.5 9.35789 16.1421 6 12 6Z" />
<path fill-rule="evenodd" clip-rule="evenodd" d="M8 2C8 1.44772 8.44772 1 9 1H15C15.5523 1 16 1.44772 16 2C16 2.55228 15.5523 3 15 3H9C8.44772 3 8 2.55228 8 2Z" />
<path fill-rule="evenodd" clip-rule="evenodd" d="M12 8.5C12.5523 8.5 13 8.94772 13 9.5V13.5C13 14.0523 12.5523 14.5 12 14.5C11.4477 14.5 11 14.0523 11 13.5V9.5C11 8.94772 11.4477 8.5 12 8.5Z" />
<path fill-rule="evenodd" clip-rule="evenodd" d="M11 13.5C11 12.9477 11.4477 12.5 12 12.5H16C16.5523 12.5 17 12.9477 17 13.5C17 14.0523 16.5523 14.5 16 14.5H12C11.4477 14.5 11 14.0523 11 13.5Z" />
<path fill-rule="evenodd" clip-rule="evenodd" d="M12 1C12.5523 1 13 1.44772 13 2V4C13 4.55228 12.5523 5 12 5C11.4477 5 11 4.55228 11 4V2C11 1.44772 11.4477 1 12 1Z" />
</svg>
