<svg viewBox="0 0 24 24" xmlns="http://www.w3.org/2000/svg">
<path fill-rule="evenodd" clip-rule="evenodd" d="M13.2711 9.74026L14.9117 10.4904L17.3539 9.77511V8.10875C17.2704 5.27408 14.9097 3 12.001 3C9.10273 3 6.75032 5.25769 6.64596 8.078V15.6883C6.64596 16.377 6.07716 16.9355 5.37687 16.9355C4.67553 16.9355 4.10882 16.377 4.10882 15.6883V12.4632H0.000976562C0.000976562 12.4632 0.000976562 15.6924 0.000976562 15.7304C0.000976562 18.6409 2.40244 21 5.36643 21C8.30329 21 10.6828 18.6798 10.7256 15.8062L10.7308 8.29014C10.7308 7.60146 11.2996 7.04293 12.001 7.04293C12.7023 7.04293 13.2711 7.60146 13.2711 8.29014V9.74026ZM19.8963 12.4632V15.838C19.8963 16.5266 19.3275 17.0852 18.6261 17.0852C17.9248 17.0852 17.3539 16.5266 17.3539 15.838V12.5268L14.9117 13.2441L13.2711 12.494V15.7775C13.2962 18.6644 15.6903 21 18.6366 21C21.5995 21 24.001 18.6409 24.001 15.7304C24.001 15.6924 24.001 12.4632 24.001 12.4632H19.8963Z" />
</svg>
