<svg viewBox="0 0 24 24" xmlns="http://www.w3.org/2000/svg">
<path d="M17.2145 11.1966C17.1198 11.1512 17.0235 11.1074 16.926 11.0656C16.7562 7.93667 15.0465 6.14536 12.1757 6.12703C12.1627 6.12695 12.1498 6.12695 12.1368 6.12695C10.4197 6.12695 8.99158 6.85989 8.1126 8.19362L9.69145 9.27668C10.3481 8.28043 11.3786 8.06805 12.1375 8.06805C12.1463 8.06805 12.1551 8.06805 12.1638 8.06813C13.109 8.07416 13.8223 8.34899 14.2839 8.88494C14.6199 9.27513 14.8446 9.81432 14.9559 10.4948C14.1178 10.3524 13.2114 10.3086 12.2425 10.3641C9.51312 10.5213 7.75844 12.1132 7.87628 14.3251C7.93609 15.4471 8.49505 16.4124 9.45013 17.0429C10.2576 17.576 11.2977 17.8366 12.3786 17.7776C13.806 17.6994 14.9258 17.1548 15.7071 16.1589C16.3004 15.4027 16.6756 14.4226 16.8413 13.1878C17.5216 13.5983 18.0258 14.1386 18.3042 14.788C18.7777 15.8921 18.8053 17.7062 17.325 19.1853C16.028 20.481 14.469 21.0415 12.1129 21.0588C9.49931 21.0395 7.5227 20.2013 6.23757 18.5676C5.03415 17.0378 4.41221 14.8281 4.38901 12C4.41221 9.17183 5.03415 6.96218 6.23757 5.43239C7.5227 3.79869 9.49928 2.96052 12.1128 2.9411C14.7454 2.96067 16.7564 3.80287 18.0908 5.44446C18.745 6.24947 19.2383 7.26184 19.5635 8.44222L21.4137 7.94859C21.0195 6.49567 20.3993 5.24367 19.5552 4.20535C17.8446 2.10077 15.3428 1.02236 12.1193 1H12.1064C8.88943 1.02228 6.41563 2.10479 4.75374 4.21742C3.27488 6.0974 2.51204 8.71326 2.48641 11.9923L2.48633 12L2.48641 12.0077C2.51204 15.2867 3.27488 17.9026 4.75374 19.7826C6.41563 21.8952 8.88943 22.9778 12.1064 23H12.1193C14.9794 22.9802 16.9953 22.2314 18.6561 20.5721C20.829 18.4013 20.7635 15.6803 20.0474 14.0099C19.5336 12.8121 18.554 11.8391 17.2145 11.1966ZM12.2764 15.8393C11.0801 15.9067 9.83736 15.3698 9.77608 14.2197C9.73066 13.367 10.3829 12.4155 12.3498 12.3021C12.5751 12.2891 12.7961 12.2828 13.0132 12.2828C13.7276 12.2828 14.396 12.3522 15.0036 12.485C14.777 15.3155 13.4476 15.7751 12.2764 15.8393Z" />
</svg>
