<svg viewBox="0 0 24 24" xmlns="http://www.w3.org/2000/svg">
<path fill-rule="evenodd" clip-rule="evenodd" d="M1 11.9C1 5.87066 5.93436 1 12 1C18.0656 1 23 5.87066 23 11.9V22C23 22.5523 22.5523 23 22 23H2C1.44772 23 1 22.5523 1 22V11.9ZM12 3C7.01994 3 3 6.99413 3 11.9V21H21V11.9C21 6.99413 16.9801 3 12 3Z" />
<path fill-rule="evenodd" clip-rule="evenodd" d="M12 7C9.23858 7 7 9.23858 7 12C7 14.7614 9.23858 17 12 17C14.7614 17 17 14.7614 17 12C17 9.23858 14.7614 7 12 7ZM5 12C5 8.13401 8.13401 5 12 5C15.866 5 19 8.13401 19 12C19 15.866 15.866 19 12 19C8.13401 19 5 15.866 5 12Z" />
<path fill-rule="evenodd" clip-rule="evenodd" d="M12 8C12.5523 8 13 8.44772 13 9V11.5858L14.7071 13.2929C15.0976 13.6834 15.0976 14.3166 14.7071 14.7071C14.3166 15.0976 13.6834 15.0976 13.2929 14.7071L11.2929 12.7071C11.1054 12.5196 11 12.2652 11 12V9C11 8.44772 11.4477 8 12 8Z" />
</svg>
