<svg viewBox="0 0 24 24" xmlns="http://www.w3.org/2000/svg">
<path fill-rule="evenodd" clip-rule="evenodd" d="M24 4.36791C23.1173 4.76904 22.1681 5.04017 21.172 5.16351C22.1888 4.53792 22.969 3.54897 23.3366 2.37002C22.3841 2.94894 21.3324 3.36897 20.2097 3.59453C19.3117 2.61337 18.033 2 16.6157 2C13.8957 2 11.6918 4.26124 11.6918 7.04917C11.6918 7.44586 11.7354 7.83032 11.8194 8.20034C7.72796 7.99033 4.0991 5.98022 1.6715 2.92561C1.24708 3.67009 1.00486 4.53792 1.00486 5.46353C1.00486 7.21473 1.87444 8.76038 3.19462 9.66487C2.38723 9.6382 1.62895 9.41152 0.964495 9.03372V9.09817C0.964495 11.5439 2.66109 13.584 4.91522 14.0484C4.5017 14.1629 4.06746 14.2262 3.61795 14.2262C3.30045 14.2262 2.99168 14.194 2.69164 14.134C3.31791 16.1397 5.1367 17.5998 7.29045 17.6409C5.60586 18.9954 3.48266 19.8021 1.17507 19.8021C0.777924 19.8021 0.385143 19.7777 0 19.7321C2.17884 21.1644 4.76683 22 7.54794 22C16.6048 22 21.5571 14.3062 21.5571 7.63476C21.5571 7.41586 21.5517 7.19918 21.5429 6.9825C22.5053 6.27024 23.3399 5.3813 24 4.36902V4.36791Z" />
</svg>
