<svg viewBox="0 0 24 24" xmlns="http://www.w3.org/2000/svg">
<path fill-rule="evenodd" clip-rule="evenodd" d="M20.503 18.2947H18.0872V19.4594C18.0872 20.0758 18.2943 20.384 18.7075 20.384C19.0044 20.384 19.1848 20.2235 19.2479 19.9015C19.2657 19.8126 19.2746 19.5397 19.2746 19.0846H20.503V19.2588C20.503 19.6961 20.4933 19.9546 20.4755 20.0357C20.449 20.2765 20.3544 20.518 20.1925 20.7588C19.8682 21.2316 19.3821 21.4683 18.7351 21.4683C18.1139 21.4683 17.628 21.2404 17.2769 20.7853C17.0164 20.4555 16.8864 19.9377 16.8864 19.2323V16.9149C16.8864 16.2095 17.0116 15.6917 17.264 15.3611C17.615 14.906 18.0961 14.6787 18.7075 14.6787C19.3109 14.6787 19.7881 14.906 20.1384 15.3611C20.3817 15.6917 20.503 16.2095 20.503 16.9149V18.2947ZM15.9416 19.3928C15.9416 20.0446 15.9013 20.4909 15.8203 20.7323C15.6675 21.2228 15.348 21.4683 14.8619 21.4683C14.43 21.4683 14.012 21.2228 13.6068 20.7323V21.3752H12.4066V12.4955H13.6068V15.402C13.9942 14.9195 14.4122 14.6787 14.8619 14.6787C15.348 14.6787 15.6675 14.9292 15.8203 15.4285C15.9013 15.6613 15.9416 16.1027 15.9416 16.7544V19.3928ZM11.3536 21.3744H10.1525V20.6513C9.66635 21.1963 9.20713 21.4683 8.77606 21.4683C8.36198 21.4683 8.10069 21.3031 7.99303 20.9731C7.92118 20.7588 7.88474 20.4329 7.88474 19.9954V14.7591H9.0858V19.6336C9.0858 19.9192 9.09056 20.0758 9.09947 20.1023C9.12618 20.2901 9.22079 20.384 9.38332 20.384C9.62598 20.384 9.8823 20.1962 10.1525 19.8214V14.7591H11.3536V21.3744ZM7.71 13.7541H6.26566V21.3744H4.91656V13.7541H3.49956V12.4955H7.71V13.7541ZM21.6498 12.4016C21.5335 11.8743 21.2747 11.433 20.8742 11.0757C20.474 10.7185 20.0121 10.5092 19.4906 10.4465C17.8351 10.2675 15.3391 10.1783 12.0006 10.1783C8.66281 10.1783 6.17104 10.2675 4.52442 10.4465C3.99377 10.5092 3.53041 10.7185 3.13495 11.0757C2.73847 11.433 2.47821 11.8752 2.35192 12.4016C2.11816 13.4372 2.00098 14.9999 2.00098 17.0892C2.00098 19.2138 2.11816 20.7765 2.35192 21.7765C2.46931 22.3032 2.72729 22.7454 3.1275 23.1027C3.52792 23.4598 3.98963 23.6653 4.51138 23.7183C6.1669 23.9061 8.66364 24 12.0014 24C15.3383 24 17.8357 23.9061 19.4906 23.7183C20.0121 23.6653 20.4707 23.4598 20.867 23.1027C21.2633 22.7454 21.5237 22.3032 21.6498 21.7765C21.8836 20.7411 22.001 19.1785 22.001 17.0892C22.001 14.9645 21.8836 13.4019 21.6498 12.4016ZM14.2141 15.7632C14.007 15.7632 13.8049 15.8619 13.6068 16.0585V20.0896C13.8049 20.2854 14.007 20.384 14.2141 20.384C14.5644 20.384 14.7406 20.0846 14.7406 19.4867V16.6605C14.7406 16.0626 14.5652 15.7632 14.2141 15.7632ZM18.6947 15.7632C18.2895 15.7632 18.0872 16.0673 18.0872 16.6741V17.2899H19.302V16.6741C19.302 16.0665 19.0991 15.7632 18.6947 15.7632ZM6.92717 5.34406V8.97362H8.27688V5.34406L9.90901 0H8.53258L7.61538 3.52209L6.65697 0H5.22713C5.47869 0.750405 5.77145 1.58444 6.10375 2.50416C6.52674 3.73641 6.80108 4.68345 6.92717 5.34406ZM11.1376 4.21866C11.1376 3.60223 11.3308 3.29483 11.7175 3.29483C12.1049 3.29483 12.2981 3.60223 12.2981 4.21866V7.03124C12.2981 7.65651 12.1049 7.96863 11.7175 7.96863C11.3308 7.96863 11.1376 7.65651 11.1376 7.03124V4.21866ZM11.7175 9.0667C12.3387 9.0667 12.8149 8.83965 13.1482 8.3837C13.3998 8.0537 13.5259 7.52644 13.5259 6.80316V4.45948C13.5259 3.74586 13.3998 3.22333 13.1482 2.89271C12.8149 2.43758 12.3387 2.20971 11.7175 2.20971C11.115 2.20971 10.6426 2.43758 10.3005 2.89271C10.049 3.22333 9.92288 3.74586 9.92288 4.45948V6.80316C9.92288 7.51761 10.049 8.04486 10.3005 8.3837C10.6426 8.83965 11.115 9.0667 11.7175 9.0667ZM15.4288 9.0667C15.8785 9.0667 16.3421 8.78972 16.8183 8.23678V8.9728H18.0469V2.29005H16.8183V7.39247C16.5491 7.77692 16.2926 7.96863 16.0493 7.96863C15.8874 7.96863 15.7928 7.87082 15.7661 7.67418C15.7565 7.65651 15.7524 7.49994 15.7524 7.20528V2.29005H14.5246V7.56733C14.5246 8.02247 14.5602 8.35719 14.6323 8.5715C14.7495 8.90211 15.0147 9.0667 15.4288 9.0667Z" />
</svg>
