<svg viewBox="0 0 24 24" xmlns="http://www.w3.org/2000/svg">
<path fill-rule="evenodd" clip-rule="evenodd" d="M23.9875 10.0078C23.9788 9.5297 23.9406 8.92524 23.8739 8.19494C23.8068 7.46432 23.7108 6.81129 23.5859 6.23585C23.4431 5.58967 23.1327 5.04504 22.6552 4.6023C22.1775 4.15955 21.6217 3.90281 20.9875 3.83189C19.0052 3.61069 16.0098 3.5 12.001 3.5C7.99215 3.5 4.99659 3.61069 3.01446 3.83189C2.38043 3.90281 1.82678 4.15955 1.35369 4.6023C0.880429 5.04488 0.572374 5.5895 0.429525 6.23585C0.295716 6.81145 0.195114 7.46448 0.128209 8.19494C0.0613053 8.92524 0.0233327 9.52953 0.014456 10.0078C0.00541492 10.4859 0.000976562 11.1499 0.000976562 12C0.000976562 12.85 0.00541492 13.5141 0.014456 13.9922C0.0233327 14.4705 0.0613053 15.0748 0.128209 15.8051C0.195114 16.5357 0.291114 17.1887 0.416209 17.7641C0.559059 18.4105 0.869251 18.9551 1.34695 19.3977C1.82465 19.8403 2.38059 20.0972 3.01446 20.1679C4.99659 20.3893 7.99199 20.5 12.001 20.5C16.0101 20.5 19.0052 20.3893 20.9875 20.1679C21.6215 20.0972 22.1752 19.8403 22.6484 19.3977C23.1217 18.9551 23.4296 18.4103 23.5724 17.7641C23.7062 17.1887 23.8068 16.5355 23.8739 15.8051C23.9406 15.0748 23.9786 14.4703 23.9875 13.9922C23.9965 13.5141 24.001 12.85 24.001 12C24.001 11.1499 23.9965 10.4859 23.9875 10.0078ZM16.7421 12.7173L9.88503 16.967C9.75993 17.0555 9.60804 17.0997 9.42952 17.0997C9.29572 17.0997 9.1573 17.0643 9.01446 16.9936C8.71988 16.8342 8.57259 16.5864 8.57259 16.2499V7.75008C8.57259 7.41379 8.71988 7.16584 9.01446 7.00641C9.31807 6.84682 9.60821 6.85579 9.88503 7.03299L16.7421 11.2829C17.0099 11.4332 17.1437 11.6723 17.1437 12C17.1437 12.3277 17.0099 12.5668 16.7421 12.7173Z" />
</svg>
