<svg viewBox="0 0 23 24" xmlns="http://www.w3.org/2000/svg">
<path fill-rule="evenodd" clip-rule="evenodd" d="M9.02236 20.1565C8.56617 20.4268 8.09754 20.464 7.81209 20.1282C7.50976 19.7716 7.42344 17.8359 10.4243 17.2577C10.4243 17.2577 9.95024 19.6044 9.02236 20.1565ZM8.83144 4.89609C9.31578 2.96597 8.94989 1.19605 6.99375 1.01594C5.30781 0.861008 3.69904 1.8738 3.21469 2.40189C2.86521 2.78298 2.98179 3.24033 3.29561 3.79529C3.54189 4.22793 3.87237 4.50973 3.95516 4.56105C4.06001 4.62653 4.19159 4.62773 4.24296 4.56897C4.80681 3.92 5.83367 3.43147 6.19042 3.73197C6.50331 3.99578 6.38369 4.49126 6.26078 4.9678C6.26078 4.9678 5.16262 9.19163 4.71745 10.9517C4.38861 12.2487 4.71135 13.4291 5.63852 13.9932C6.32927 14.427 7.35331 14.3916 8.16298 14.286C9.9228 14.0675 10.9534 13.3097 11.1197 13.1792C10.9239 14.2923 10.7944 15.0314 10.7944 15.0314C10.7944 15.0314 8.81033 15.2139 7.18397 16.2102C5.04769 17.5196 4.18432 20.4937 5.55244 22.0281C6.92057 23.563 9.31039 22.9807 10.2826 22.3109C11.2189 21.6667 12.4409 20.3114 12.9935 17.2354C16.2174 17.4033 17.0552 19.1101 18.429 19.1723C19.4148 19.2164 20.1102 18.2432 19.9868 17.209C19.9721 17.0834 19.8677 17.0121 19.7919 16.9918C19.6001 16.9375 19.4037 16.9838 18.8368 16.7246C18.3795 16.5164 16.2603 15.4696 13.3414 15.1252L15.4549 2.81751C15.5503 2.26663 15.5449 1.82247 15.3756 1.54044C15.1263 1.12578 14.5802 1.01498 13.9542 1.07038C13.4659 1.11427 13.0749 1.30037 12.9942 1.35553C12.8908 1.42532 12.857 1.53972 12.8647 1.6203C12.8863 1.85197 13.062 2.03304 12.9166 2.92616C12.8856 3.11394 12.1951 7.05165 11.6099 10.3862C10.0659 11.3345 8.00982 11.7832 7.58716 11.2141C7.38498 10.9304 7.42977 10.3987 7.62469 9.60149C7.66737 9.42522 8.57719 5.9072 8.83144 4.89609Z" />
</svg>
